<svg width="64" height="66" viewBox="0 0 64 66" fill="none" xmlns="http://www.w3.org/2000/svg">
<path d="M50.068 43.5605C47.1418 48.5279 42.0884 52.4894 36.5056 54.4619C30.9242 56.4339 24.929 56.3825 20.0571 53.5127C15.1852 50.6428 12.2337 45.4242 11.2526 39.5865C10.2713 33.7474 11.2863 27.407 14.2124 22.4395C17.1385 17.4721 22.192 13.5105 27.7748 11.538C33.3562 9.56603 39.3514 9.6175 44.2233 12.4873C49.0952 15.3571 52.0466 20.5758 53.0277 26.4134C54.009 32.2526 52.9941 38.593 50.068 43.5605Z" stroke="#331B3B" stroke-opacity="0.64" stroke-width="2"/>
<g clip-path="url(#clip0_117_251)">
<path fill-rule="evenodd" clip-rule="evenodd" d="M41.5898 42.0002H37.8914V35.7009C37.8914 33.9738 37.2352 33.0087 35.8682 33.0087C34.3811 33.0087 33.6041 34.0131 33.6041 35.7009V42.0002H30.0398V30.0002H33.6041V31.6166C33.6041 31.6166 34.6758 29.6336 37.2223 29.6336C39.7676 29.6336 41.5898 31.1879 41.5898 34.4025V42.0002ZM25.7877 28.4289C24.5736 28.4289 23.5898 27.4374 23.5898 26.2145C23.5898 24.9917 24.5736 24.0002 25.7877 24.0002C27.0018 24.0002 27.985 24.9917 27.985 26.2145C27.985 27.4374 27.0018 28.4289 25.7877 28.4289ZM23.9473 42.0002H27.6639V30.0002H23.9473V42.0002Z" fill="#331B3B"/>
</g>
<defs>
<clipPath id="clip0_117_251">
<rect width="18" height="18" fill="white" transform="translate(23.5898 24.0002)"/>
</clipPath>
</defs>
</svg>
