<svg width="64" height="66" viewBox="0 0 64 66" fill="none" xmlns="http://www.w3.org/2000/svg">
<path d="M49.8281 43.5605C46.902 48.5279 41.8485 52.4894 36.2657 54.4619C30.6843 56.4339 24.6891 56.3825 19.8172 53.5127C14.9453 50.6428 11.9938 45.4242 11.0128 39.5865C10.0314 33.7474 11.0464 27.407 13.9725 22.4395C16.8986 17.4721 21.9521 13.5105 27.5349 11.538C33.1163 9.56603 39.1115 9.6175 43.9834 12.4873C48.8553 15.3571 51.8068 20.5758 52.7878 26.4134C53.7692 32.2526 52.7542 38.593 49.8281 43.5605Z" stroke="#331B3B" stroke-opacity="0.64" stroke-width="2"/>
<g clip-path="url(#clip0_117_252)">
<path d="M32.7999 23.3204C35.9546 23.3204 36.3249 23.3344 37.5718 23.3907C38.7249 23.4423 39.3483 23.6344 39.7655 23.7985C40.3186 24.0141 40.7124 24.2673 41.1249 24.6798C41.5374 25.0923 41.7952 25.486 42.0061 26.0391C42.1655 26.4563 42.3624 27.0798 42.4139 28.2329C42.4702 29.4798 42.4843 29.8501 42.4843 33.0048C42.4843 36.1594 42.4702 36.5298 42.4139 37.7766C42.3624 38.9298 42.1702 39.5532 42.0061 39.9704C41.7905 40.5235 41.5374 40.9173 41.1249 41.3298C40.7124 41.7423 40.3186 42.0001 39.7655 42.211C39.3483 42.3704 38.7249 42.5673 37.5718 42.6188C36.3249 42.6751 35.9546 42.6891 32.7999 42.6891C29.6452 42.6891 29.2749 42.6751 28.028 42.6188C26.8749 42.5673 26.2514 42.3751 25.8343 42.211C25.2811 41.9954 24.8874 41.7423 24.4749 41.3298C24.0624 40.9173 23.8046 40.5235 23.5936 39.9704C23.4343 39.5532 23.2374 38.9298 23.1858 37.7766C23.1296 36.5298 23.1155 36.1594 23.1155 33.0048C23.1155 29.8501 23.1296 29.4798 23.1858 28.2329C23.2374 27.0798 23.4296 26.4563 23.5936 26.0391C23.8093 25.486 24.0624 25.0923 24.4749 24.6798C24.8874 24.2673 25.2811 24.0094 25.8343 23.7985C26.2514 23.6391 26.8749 23.4423 28.028 23.3907C29.2749 23.3298 29.6452 23.3204 32.7999 23.3204ZM32.7999 21.1923C29.5936 21.1923 29.1905 21.2063 27.9296 21.2626C26.6733 21.3188 25.8155 21.5204 25.0655 21.811C24.2874 22.111 23.6311 22.5188 22.9749 23.1751C22.3186 23.8313 21.9155 24.4923 21.6108 25.2657C21.3202 26.0157 21.1186 26.8735 21.0624 28.1344C21.0061 29.3907 20.9921 29.7938 20.9921 33.0001C20.9921 36.2063 21.0061 36.6094 21.0624 37.8704C21.1186 39.1266 21.3202 39.9844 21.6108 40.7391C21.9108 41.5173 22.3186 42.1735 22.9749 42.8298C23.6311 43.486 24.2921 43.8891 25.0655 44.1938C25.8155 44.4844 26.6733 44.686 27.9343 44.7423C29.1952 44.7985 29.5936 44.8126 32.8046 44.8126C36.0155 44.8126 36.4139 44.7985 37.6749 44.7423C38.9311 44.686 39.7889 44.4844 40.5436 44.1938C41.3218 43.8938 41.978 43.486 42.6343 42.8298C43.2905 42.1735 43.6936 41.5126 43.9983 40.7391C44.2889 39.9891 44.4905 39.1313 44.5468 37.8704C44.603 36.6094 44.6171 36.211 44.6171 33.0001C44.6171 29.7891 44.603 29.3907 44.5468 28.1298C44.4905 26.8735 44.2889 26.0157 43.9983 25.261C43.6983 24.4829 43.2905 23.8266 42.6343 23.1704C41.978 22.5141 41.3171 22.111 40.5436 21.8063C39.7936 21.5157 38.9358 21.3141 37.6749 21.2579C36.4093 21.2063 36.0061 21.1923 32.7999 21.1923Z" fill="#331B3B"/>
<path d="M32.7999 26.9344C29.453 26.9344 26.7343 29.6485 26.7343 33.0001C26.7343 36.3516 29.453 39.0657 32.7999 39.0657C36.1468 39.0657 38.8655 36.3469 38.8655 33.0001C38.8655 29.6532 36.1468 26.9344 32.7999 26.9344ZM32.7999 36.9376C30.6249 36.9376 28.8624 35.1751 28.8624 33.0001C28.8624 30.8251 30.6249 29.0626 32.7999 29.0626C34.9749 29.0626 36.7374 30.8251 36.7374 33.0001C36.7374 35.1751 34.9749 36.9376 32.7999 36.9376Z" fill="#331B3B"/>
<path d="M39.1046 28.111C39.8864 28.111 40.5202 27.4772 40.5202 26.6954C40.5202 25.9136 39.8864 25.2798 39.1046 25.2798C38.3228 25.2798 37.689 25.9136 37.689 26.6954C37.689 27.4772 38.3228 28.111 39.1046 28.111Z" fill="#331B3B"/>
</g>
<defs>
<clipPath id="clip0_117_252">
<rect width="24" height="24" fill="white" transform="translate(20.7999 21.0002)"/>
</clipPath>
</defs>
</svg>
