<svg width="63" height="66" viewBox="0 0 63 66" fill="none" xmlns="http://www.w3.org/2000/svg">
<path d="M49.3078 43.5605C46.3817 48.5279 41.3282 52.4894 35.7454 54.4619C30.164 56.4339 24.1688 56.3825 19.2969 53.5127C14.425 50.6428 11.4736 45.4242 10.4925 39.5865C9.51118 33.7474 10.5261 27.407 13.4522 22.4395C16.3784 17.4721 21.4318 13.5105 27.0146 11.538C32.596 9.56603 38.5912 9.6175 43.4631 12.4873C48.3351 15.3571 51.2865 20.5758 52.2676 26.4134C53.2489 32.2526 52.2339 38.593 49.3078 43.5605Z" stroke="#331B3B" stroke-opacity="0.64" stroke-width="2"/>
<g clip-path="url(#clip0_117_250)">
<path fill-rule="evenodd" clip-rule="evenodd" d="M33.2013 43.0002V34.0002H35.9337L36.38 30.0002H33.2013V28.0519C33.2013 27.0219 33.2276 26.0002 34.6669 26.0002H36.1247V23.1403C36.1247 23.0973 34.8725 23.0002 33.6057 23.0002C30.96 23.0002 29.3034 24.6574 29.3034 27.7004V30.0002H26.38V34.0002H29.3034V43.0002H33.2013Z" fill="#331B3B"/>
</g>
<defs>
<clipPath id="clip0_117_250">
<rect width="10" height="20" fill="white" transform="translate(26.38 23.0002)"/>
</clipPath>
</defs>
</svg>
