<svg width="180" height="46" viewBox="0 0 180 46" fill="none" xmlns="http://www.w3.org/2000/svg">
<g clip-path="url(#clip0_104_159)">
<path d="M0.0349121 0L0.0646585 35.7109L29.6532 46L59.2422 35.7109V0H0.0349121Z" fill="#D73749"/>
<path d="M29.6068 34.587H20.5607V31.3914H20.4664C18.7137 33.912 16.2047 35.2171 12.4626 35.2171C8.05852 35.2171 4.03284 32.4581 4.03284 26.6965V9.46195H13.4101V22.6288C13.4101 25.5345 13.7417 27.5674 16.4895 27.5674C18.0985 27.5674 20.2296 26.7431 20.2296 22.7257V9.46195H29.6068V34.587ZM47.0862 16.7711C47.037 15.9493 46.6135 15.3205 45.9963 14.8818C45.428 14.3985 44.6708 14.1577 43.9121 14.1577C42.5854 14.1577 41.0695 14.4488 41.0695 16.0936C41.0695 16.8189 41.6391 17.1575 42.1594 17.3999C43.7221 18.0798 47.2742 18.272 50.4016 19.3371C53.5253 20.3559 56.2735 22.2416 56.2735 26.3571C56.2735 33.3294 49.7376 35.2167 43.7709 35.2167C37.9922 35.2167 31.6455 32.8441 31.5043 26.3571H40.4548C40.5016 27.2292 40.8819 27.9546 41.5915 28.5854C42.065 29.0196 42.965 29.3107 44.1025 29.3107C45.3336 29.3107 47.2742 28.8262 47.2742 27.3748C47.2742 25.9209 46.4703 25.4867 42.113 24.7111C34.962 23.4538 32.0726 21.1299 32.0726 16.8193C32.0726 10.4792 38.7509 8.83191 43.6753 8.83191C48.9813 8.83191 55.3736 10.3336 55.6096 16.7715L47.0862 16.7711Z" fill="white"/>
<path d="M62.5758 0.0202637H71.9531V12.2197H72.0475C73.4697 10.0892 75.9788 8.83194 78.7725 8.83194C87.0135 8.83194 89.2397 15.9963 89.2397 21.9031C89.2397 28.1954 85.8768 35.2167 78.9137 35.2167C74.3209 35.2167 72.9006 33.4251 71.7163 31.8265H71.6219V34.5867H62.5758V0.0202637ZM75.7424 15.8042C72.3794 15.8042 71.6219 19.0464 71.6219 22.0012C71.6219 25.0034 72.3794 28.2457 75.7424 28.2457C79.1053 28.2457 79.8628 25.0034 79.8628 22.0012C79.8628 19.0464 79.1053 15.8042 75.7424 15.8042ZM115.384 28.9718C115.384 30.8599 115.48 32.9917 116.523 34.5879H106.954C106.718 33.9116 106.577 32.8928 106.622 32.2165H106.529C104.537 34.5392 101.65 35.2167 98.6186 35.2167C93.8821 35.2167 89.9528 32.8932 89.9528 27.6156C89.9528 19.6773 99.0445 19.9672 103.829 19.0472C105.108 18.8052 106.386 18.4184 106.386 16.819C106.386 15.1251 104.822 14.4962 103.308 14.4962C100.418 14.4962 99.8505 15.9955 99.8029 17.061H91.0872C91.3731 9.99351 97.9078 8.83154 103.734 8.83154C115.479 8.83154 115.384 13.8175 115.384 18.6596V28.9718H115.384ZM106.386 23.3079C105.249 23.8889 103.971 24.2274 102.694 24.5173C100.61 25.0026 99.5185 25.5337 99.5185 27.2289C99.5185 28.3908 100.751 29.5524 102.455 29.5524C104.587 29.5524 106.244 28.2449 106.386 25.6302V23.3079H106.386ZM118.745 9.46117H127.791V12.6568H127.884C129.638 10.1386 132.146 8.83113 135.886 8.83113C140.292 8.83113 144.32 11.5901 144.32 17.3517V34.5862H134.94V21.4198C134.94 18.5141 134.61 16.4804 131.865 16.4804C130.251 16.4804 128.121 17.3047 128.121 21.3221V34.5867H118.745V9.46117ZM147.637 0.0206691H157.013V16.7241L162.982 9.46077H173.59L164.829 18.9499L174.965 34.5871H163.69L158.671 25.4867L157.013 27.3249V34.5871H147.637V0.0206691ZM179.13 31.1656C179.486 31.5313 179.663 31.9724 179.663 32.4881C179.663 33.0075 179.486 33.4523 179.13 33.82C178.777 34.1857 178.344 34.3693 177.837 34.3693C177.33 34.3693 176.899 34.1853 176.546 33.82C176.192 33.4523 176.018 33.0075 176.018 32.4881C176.018 31.9724 176.192 31.5313 176.547 31.1656C176.905 30.7999 177.335 30.6162 177.837 30.6162C178.343 30.6162 178.774 30.8003 179.13 31.1656ZM179.342 30.956C178.926 30.5356 178.426 30.3239 177.837 30.3239C177.253 30.3239 176.756 30.536 176.342 30.956C175.928 31.3809 175.721 31.8909 175.721 32.4881C175.721 33.091 175.926 33.6047 176.336 34.0284C176.749 34.4545 177.251 34.6665 177.838 34.6665C178.426 34.6665 178.926 34.4545 179.342 34.0284C179.756 33.6035 179.965 33.0902 179.965 32.4881C179.964 31.8897 179.756 31.3801 179.342 30.956ZM178.153 32.388C178.066 32.4216 177.936 32.4415 177.762 32.4415H177.393V31.5792H177.743C177.969 31.5792 178.136 31.6071 178.239 31.6663C178.342 31.7255 178.393 31.8423 178.393 32.0146C178.393 32.1982 178.312 32.3227 178.153 32.388ZM176.982 33.6744H177.393V32.7338H177.717C177.932 32.7338 178.087 32.7594 178.174 32.8109C178.32 32.9005 178.392 33.0821 178.392 33.357V33.5479L178.401 33.6225C178.404 33.6343 178.406 33.6424 178.407 33.6505L178.412 33.6748H178.797L178.783 33.6456C178.77 33.605 178.763 33.5627 178.762 33.52C178.759 33.4611 178.757 33.4022 178.757 33.3432V33.1684C178.757 33.0484 178.713 32.9252 178.628 32.7983C178.544 32.6738 178.41 32.5956 178.227 32.5668C178.373 32.5425 178.486 32.5039 178.567 32.4516C178.719 32.3515 178.793 32.1934 178.793 31.9813C178.793 31.6809 178.675 31.4794 178.433 31.3785C178.299 31.3213 178.087 31.2925 177.797 31.2925H176.981V33.6744H176.982Z" fill="#18488A"/>
</g>
<defs>
<clipPath id="clip0_104_159">
<rect width="180" height="46" fill="white"/>
</clipPath>
</defs>
</svg>
